<mxfile host="app.diagrams.net" modified="2023-10-14T21:34:01.918Z" agent="Mozilla/5.0 (Windows NT 10.0; Win64; x64) AppleWebKit/537.36 (KHTML, like Gecko) Chrome/117.0.0.0 Safari/537.36 Edg/117.0.2045.60" etag="DjDMiWYO_yInT4qqs47k" version="22.0.4" type="github">
  <diagram id="C5RBs43oDa-KdzZeNtuy" name="Page-1">
    <mxGraphModel dx="1426" dy="793" grid="1" gridSize="10" guides="1" tooltips="1" connect="1" arrows="1" fold="1" page="1" pageScale="1" pageWidth="827" pageHeight="1169" math="0" shadow="0">
      <root>
        <mxCell id="WIyWlLk6GJQsqaUBKTNV-0" />
        <mxCell id="WIyWlLk6GJQsqaUBKTNV-1" parent="WIyWlLk6GJQsqaUBKTNV-0" />
        <mxCell id="z8Ag8mYcgA9eSwnqyI90-7" value="" style="edgeStyle=orthogonalEdgeStyle;rounded=0;orthogonalLoop=1;jettySize=auto;html=1;" edge="1" parent="WIyWlLk6GJQsqaUBKTNV-1" source="z8Ag8mYcgA9eSwnqyI90-3" target="z8Ag8mYcgA9eSwnqyI90-6">
          <mxGeometry relative="1" as="geometry" />
        </mxCell>
        <mxCell id="z8Ag8mYcgA9eSwnqyI90-3" value="Inicio" style="ellipse;whiteSpace=wrap;html=1;" vertex="1" parent="WIyWlLk6GJQsqaUBKTNV-1">
          <mxGeometry x="150" y="60" width="140" height="80" as="geometry" />
        </mxCell>
        <mxCell id="z8Ag8mYcgA9eSwnqyI90-9" value="" style="edgeStyle=orthogonalEdgeStyle;rounded=0;orthogonalLoop=1;jettySize=auto;html=1;" edge="1" parent="WIyWlLk6GJQsqaUBKTNV-1" source="z8Ag8mYcgA9eSwnqyI90-6" target="z8Ag8mYcgA9eSwnqyI90-8">
          <mxGeometry relative="1" as="geometry" />
        </mxCell>
        <mxCell id="z8Ag8mYcgA9eSwnqyI90-6" value="&lt;font style=&quot;font-size: 19px;&quot;&gt;i&lt;/font&gt;" style="rounded=0;whiteSpace=wrap;html=1;" vertex="1" parent="WIyWlLk6GJQsqaUBKTNV-1">
          <mxGeometry x="160" y="180" width="120" height="60" as="geometry" />
        </mxCell>
        <mxCell id="z8Ag8mYcgA9eSwnqyI90-11" value="" style="edgeStyle=orthogonalEdgeStyle;rounded=0;orthogonalLoop=1;jettySize=auto;html=1;" edge="1" parent="WIyWlLk6GJQsqaUBKTNV-1" source="z8Ag8mYcgA9eSwnqyI90-8" target="z8Ag8mYcgA9eSwnqyI90-10">
          <mxGeometry relative="1" as="geometry" />
        </mxCell>
        <mxCell id="z8Ag8mYcgA9eSwnqyI90-8" value="&lt;span style=&quot;font-size: 17px;&quot;&gt;i&lt;/span&gt;" style="rounded=0;whiteSpace=wrap;html=1;" vertex="1" parent="WIyWlLk6GJQsqaUBKTNV-1">
          <mxGeometry x="160" y="270" width="120" height="60" as="geometry" />
        </mxCell>
        <mxCell id="z8Ag8mYcgA9eSwnqyI90-26" value="" style="edgeStyle=orthogonalEdgeStyle;rounded=0;orthogonalLoop=1;jettySize=auto;html=1;" edge="1" parent="WIyWlLk6GJQsqaUBKTNV-1" source="z8Ag8mYcgA9eSwnqyI90-10" target="z8Ag8mYcgA9eSwnqyI90-19">
          <mxGeometry relative="1" as="geometry" />
        </mxCell>
        <mxCell id="z8Ag8mYcgA9eSwnqyI90-35" value="" style="edgeStyle=orthogonalEdgeStyle;rounded=0;orthogonalLoop=1;jettySize=auto;html=1;" edge="1" parent="WIyWlLk6GJQsqaUBKTNV-1" source="z8Ag8mYcgA9eSwnqyI90-10" target="z8Ag8mYcgA9eSwnqyI90-33">
          <mxGeometry relative="1" as="geometry" />
        </mxCell>
        <mxCell id="z8Ag8mYcgA9eSwnqyI90-10" value="i&amp;lt;=100" style="rhombus;whiteSpace=wrap;html=1;" vertex="1" parent="WIyWlLk6GJQsqaUBKTNV-1">
          <mxGeometry x="180" y="360" width="80" height="80" as="geometry" />
        </mxCell>
        <mxCell id="z8Ag8mYcgA9eSwnqyI90-37" value="" style="edgeStyle=orthogonalEdgeStyle;rounded=0;orthogonalLoop=1;jettySize=auto;html=1;" edge="1" parent="WIyWlLk6GJQsqaUBKTNV-1" source="z8Ag8mYcgA9eSwnqyI90-12" target="z8Ag8mYcgA9eSwnqyI90-17">
          <mxGeometry relative="1" as="geometry" />
        </mxCell>
        <mxCell id="z8Ag8mYcgA9eSwnqyI90-12" value="i++" style="rounded=0;whiteSpace=wrap;html=1;" vertex="1" parent="WIyWlLk6GJQsqaUBKTNV-1">
          <mxGeometry x="160" y="510" width="120" height="60" as="geometry" />
        </mxCell>
        <mxCell id="z8Ag8mYcgA9eSwnqyI90-17" value="Fin" style="ellipse;whiteSpace=wrap;html=1;" vertex="1" parent="WIyWlLk6GJQsqaUBKTNV-1">
          <mxGeometry x="335" y="515" width="120" height="50" as="geometry" />
        </mxCell>
        <mxCell id="z8Ag8mYcgA9eSwnqyI90-32" style="edgeStyle=orthogonalEdgeStyle;rounded=0;orthogonalLoop=1;jettySize=auto;html=1;exitX=0.5;exitY=1;exitDx=0;exitDy=0;" edge="1" parent="WIyWlLk6GJQsqaUBKTNV-1" source="z8Ag8mYcgA9eSwnqyI90-19" target="z8Ag8mYcgA9eSwnqyI90-17">
          <mxGeometry relative="1" as="geometry" />
        </mxCell>
        <mxCell id="z8Ag8mYcgA9eSwnqyI90-19" value="NO" style="text;html=1;strokeColor=none;fillColor=none;align=center;verticalAlign=middle;whiteSpace=wrap;rounded=0;" vertex="1" parent="WIyWlLk6GJQsqaUBKTNV-1">
          <mxGeometry x="380" y="390" width="30" height="20" as="geometry" />
        </mxCell>
        <mxCell id="z8Ag8mYcgA9eSwnqyI90-36" value="" style="edgeStyle=orthogonalEdgeStyle;rounded=0;orthogonalLoop=1;jettySize=auto;html=1;" edge="1" parent="WIyWlLk6GJQsqaUBKTNV-1" source="z8Ag8mYcgA9eSwnqyI90-33" target="z8Ag8mYcgA9eSwnqyI90-12">
          <mxGeometry relative="1" as="geometry" />
        </mxCell>
        <mxCell id="z8Ag8mYcgA9eSwnqyI90-33" value="SI" style="text;html=1;strokeColor=none;fillColor=none;align=center;verticalAlign=middle;whiteSpace=wrap;rounded=0;" vertex="1" parent="WIyWlLk6GJQsqaUBKTNV-1">
          <mxGeometry x="195" y="460" width="50" height="20" as="geometry" />
        </mxCell>
      </root>
    </mxGraphModel>
  </diagram>
</mxfile>
